<svg width="104" height="108" viewBox="0 0 104 108" fill="none" xmlns="http://www.w3.org/2000/svg">
<g filter="url(#filter0_d_16_30)">
<path d="M99 50C99 77.1008 77.9193 99 52 99C26.0807 99 5 77.1008 5 50C5 22.8992 26.0807 1 52 1C77.9193 1 99 22.8992 99 50Z" stroke="white" stroke-width="2"/>
</g>
<path d="M51.8453 72.768C48.9867 72.768 46.4053 72.256 44.1013 71.232C41.7973 70.1653 39.9413 68.5867 38.5333 66.496C37.168 64.4053 36.4427 61.8027 36.3573 58.688H41.7973C41.84 61.248 42.736 63.4667 44.4853 65.344C46.2347 67.1787 48.688 68.096 51.8453 68.096C55.0027 68.096 57.3707 67.2213 58.9493 65.472C60.5707 63.7227 61.3813 61.6107 61.3813 59.136C61.3813 57.0453 60.8693 55.3387 59.8453 54.016C58.864 52.6933 57.52 51.712 55.8133 51.072C54.1493 50.432 52.3147 50.112 50.3093 50.112H46.9813V45.568H50.3093C53.2107 45.568 55.472 44.9067 57.0933 43.584C58.7573 42.2613 59.5893 40.4053 59.5893 38.016C59.5893 36.0107 58.928 34.368 57.6053 33.088C56.3253 31.7653 54.4053 31.104 51.8453 31.104C49.3707 31.104 47.3867 31.8507 45.8933 33.344C44.4 34.7947 43.568 36.6293 43.3973 38.848H37.9573C38.0853 36.416 38.7253 34.2613 39.8773 32.384C41.072 30.5067 42.6933 29.056 44.7413 28.032C46.7893 26.9653 49.1573 26.432 51.8453 26.432C54.7467 26.432 57.1573 26.944 59.0773 27.968C61.04 28.992 62.512 30.3573 63.4933 32.064C64.5173 33.7707 65.0293 35.648 65.0293 37.696C65.0293 39.9573 64.4107 42.0267 63.1733 43.904C61.936 45.7387 60.08 46.976 57.6053 47.616C60.2507 48.1707 62.448 49.4293 64.1973 51.392C65.9467 53.3547 66.8213 55.936 66.8213 59.136C66.8213 61.6107 66.2453 63.8933 65.0933 65.984C63.984 68.032 62.32 69.6747 60.1013 70.912C57.8827 72.1493 55.1307 72.768 51.8453 72.768Z" fill="white"/>
<defs>
<filter id="filter0_d_16_30" x="0" y="0" width="104" height="108" filterUnits="userSpaceOnUse" color-interpolation-filters="sRGB">
<feFlood flood-opacity="0" result="BackgroundImageFix"/>
<feColorMatrix in="SourceAlpha" type="matrix" values="0 0 0 0 0 0 0 0 0 0 0 0 0 0 0 0 0 0 127 0" result="hardAlpha"/>
<feOffset dy="4"/>
<feGaussianBlur stdDeviation="2"/>
<feColorMatrix type="matrix" values="0 0 0 0 0 0 0 0 0 0 0 0 0 0 0 0 0 0 0.25 0"/>
<feBlend mode="normal" in2="BackgroundImageFix" result="effect1_dropShadow_16_30"/>
<feBlend mode="normal" in="SourceGraphic" in2="effect1_dropShadow_16_30" result="shape"/>
</filter>
</defs>
</svg>
